<?xml version="1.0" encoding="utf-8" standalone="no"?>
<!DOCTYPE svg PUBLIC "-//W3C//DTD SVG 1.1//EN"
  "http://www.w3.org/Graphics/SVG/1.1/DTD/svg11.dtd">
<svg xmlns:xlink="http://www.w3.org/1999/xlink" width="460.8pt" height="345.6pt" viewBox="0 0 460.8 345.6" xmlns="http://www.w3.org/2000/svg" version="1.1">
 <metadata>
  <rdf:RDF xmlns:dc="http://purl.org/dc/elements/1.1/" xmlns:cc="http://creativecommons.org/ns#" xmlns:rdf="http://www.w3.org/1999/02/22-rdf-syntax-ns#">
   <cc:Work>
    <dc:type rdf:resource="http://purl.org/dc/dcmitype/StillImage"/>
    <dc:date>2023-04-18T00:07:17.845058</dc:date>
    <dc:format>image/svg+xml</dc:format>
    <dc:creator>
     <cc:Agent>
      <dc:title>Matplotlib v3.5.1, https://matplotlib.org/</dc:title>
     </cc:Agent>
    </dc:creator>
   </cc:Work>
  </rdf:RDF>
 </metadata>
 <defs>
  <style type="text/css">*{stroke-linejoin: round; stroke-linecap: butt}</style>
 </defs>
 <g id="figure_1">
  <g id="patch_1">
   <path d="M 0 345.6 
L 460.8 345.6 
L 460.8 0 
L 0 0 
z
" style="fill: #ffffff"/>
  </g>
  <g id="axes_1">
   <g id="patch_2">
    <path d="M 57.6 307.584 
L 414.72 307.584 
L 414.72 41.472 
L 57.6 41.472 
z
" style="fill: #ffffff"/>
   </g>
   <g id="matplotlib.axis_1">
    <g id="xtick_1">
     <g id="line2d_1">
      <defs>
       <path id="m6f2e82cb51" d="M 0 0 
L 0 3.5 
" style="stroke: #000000; stroke-width: 0.8"/>
      </defs>
      <g>
       <use xlink:href="#m6f2e82cb51" x="57.6" y="307.584" style="stroke: #000000; stroke-width: 0.8"/>
      </g>
     </g>
     <g id="text_1">
      <!-- 0 -->
      <g transform="translate(54.41875 322.182437)scale(0.1 -0.1)">
       <defs>
        <path id="DejaVuSans-30" d="M 2034 4250 
Q 1547 4250 1301 3770 
Q 1056 3291 1056 2328 
Q 1056 1369 1301 889 
Q 1547 409 2034 409 
Q 2525 409 2770 889 
Q 3016 1369 3016 2328 
Q 3016 3291 2770 3770 
Q 2525 4250 2034 4250 
z
M 2034 4750 
Q 2819 4750 3233 4129 
Q 3647 3509 3647 2328 
Q 3647 1150 3233 529 
Q 2819 -91 2034 -91 
Q 1250 -91 836 529 
Q 422 1150 422 2328 
Q 422 3509 836 4129 
Q 1250 4750 2034 4750 
z
" transform="scale(0.015625)"/>
       </defs>
       <use xlink:href="#DejaVuSans-30"/>
      </g>
     </g>
    </g>
    <g id="xtick_2">
     <g id="line2d_2">
      <g>
       <use xlink:href="#m6f2e82cb51" x="129.024" y="307.584" style="stroke: #000000; stroke-width: 0.8"/>
      </g>
     </g>
     <g id="text_2">
      <!-- 10 -->
      <g transform="translate(122.6615 322.182437)scale(0.1 -0.1)">
       <defs>
        <path id="DejaVuSans-31" d="M 794 531 
L 1825 531 
L 1825 4091 
L 703 3866 
L 703 4441 
L 1819 4666 
L 2450 4666 
L 2450 531 
L 3481 531 
L 3481 0 
L 794 0 
L 794 531 
z
" transform="scale(0.015625)"/>
       </defs>
       <use xlink:href="#DejaVuSans-31"/>
       <use xlink:href="#DejaVuSans-30" x="63.623047"/>
      </g>
     </g>
    </g>
    <g id="xtick_3">
     <g id="line2d_3">
      <g>
       <use xlink:href="#m6f2e82cb51" x="200.448" y="307.584" style="stroke: #000000; stroke-width: 0.8"/>
      </g>
     </g>
     <g id="text_3">
      <!-- 20 -->
      <g transform="translate(194.0855 322.182437)scale(0.1 -0.1)">
       <defs>
        <path id="DejaVuSans-32" d="M 1228 531 
L 3431 531 
L 3431 0 
L 469 0 
L 469 531 
Q 828 903 1448 1529 
Q 2069 2156 2228 2338 
Q 2531 2678 2651 2914 
Q 2772 3150 2772 3378 
Q 2772 3750 2511 3984 
Q 2250 4219 1831 4219 
Q 1534 4219 1204 4116 
Q 875 4013 500 3803 
L 500 4441 
Q 881 4594 1212 4672 
Q 1544 4750 1819 4750 
Q 2544 4750 2975 4387 
Q 3406 4025 3406 3419 
Q 3406 3131 3298 2873 
Q 3191 2616 2906 2266 
Q 2828 2175 2409 1742 
Q 1991 1309 1228 531 
z
" transform="scale(0.015625)"/>
       </defs>
       <use xlink:href="#DejaVuSans-32"/>
       <use xlink:href="#DejaVuSans-30" x="63.623047"/>
      </g>
     </g>
    </g>
    <g id="xtick_4">
     <g id="line2d_4">
      <g>
       <use xlink:href="#m6f2e82cb51" x="271.872" y="307.584" style="stroke: #000000; stroke-width: 0.8"/>
      </g>
     </g>
     <g id="text_4">
      <!-- 30 -->
      <g transform="translate(265.5095 322.182437)scale(0.1 -0.1)">
       <defs>
        <path id="DejaVuSans-33" d="M 2597 2516 
Q 3050 2419 3304 2112 
Q 3559 1806 3559 1356 
Q 3559 666 3084 287 
Q 2609 -91 1734 -91 
Q 1441 -91 1130 -33 
Q 819 25 488 141 
L 488 750 
Q 750 597 1062 519 
Q 1375 441 1716 441 
Q 2309 441 2620 675 
Q 2931 909 2931 1356 
Q 2931 1769 2642 2001 
Q 2353 2234 1838 2234 
L 1294 2234 
L 1294 2753 
L 1863 2753 
Q 2328 2753 2575 2939 
Q 2822 3125 2822 3475 
Q 2822 3834 2567 4026 
Q 2313 4219 1838 4219 
Q 1578 4219 1281 4162 
Q 984 4106 628 3988 
L 628 4550 
Q 988 4650 1302 4700 
Q 1616 4750 1894 4750 
Q 2613 4750 3031 4423 
Q 3450 4097 3450 3541 
Q 3450 3153 3228 2886 
Q 3006 2619 2597 2516 
z
" transform="scale(0.015625)"/>
       </defs>
       <use xlink:href="#DejaVuSans-33"/>
       <use xlink:href="#DejaVuSans-30" x="63.623047"/>
      </g>
     </g>
    </g>
    <g id="xtick_5">
     <g id="line2d_5">
      <g>
       <use xlink:href="#m6f2e82cb51" x="343.296" y="307.584" style="stroke: #000000; stroke-width: 0.8"/>
      </g>
     </g>
     <g id="text_5">
      <!-- 40 -->
      <g transform="translate(336.9335 322.182437)scale(0.1 -0.1)">
       <defs>
        <path id="DejaVuSans-34" d="M 2419 4116 
L 825 1625 
L 2419 1625 
L 2419 4116 
z
M 2253 4666 
L 3047 4666 
L 3047 1625 
L 3713 1625 
L 3713 1100 
L 3047 1100 
L 3047 0 
L 2419 0 
L 2419 1100 
L 313 1100 
L 313 1709 
L 2253 4666 
z
" transform="scale(0.015625)"/>
       </defs>
       <use xlink:href="#DejaVuSans-34"/>
       <use xlink:href="#DejaVuSans-30" x="63.623047"/>
      </g>
     </g>
    </g>
    <g id="xtick_6">
     <g id="line2d_6">
      <g>
       <use xlink:href="#m6f2e82cb51" x="414.72" y="307.584" style="stroke: #000000; stroke-width: 0.8"/>
      </g>
     </g>
     <g id="text_6">
      <!-- 50 -->
      <g transform="translate(408.3575 322.182437)scale(0.1 -0.1)">
       <defs>
        <path id="DejaVuSans-35" d="M 691 4666 
L 3169 4666 
L 3169 4134 
L 1269 4134 
L 1269 2991 
Q 1406 3038 1543 3061 
Q 1681 3084 1819 3084 
Q 2600 3084 3056 2656 
Q 3513 2228 3513 1497 
Q 3513 744 3044 326 
Q 2575 -91 1722 -91 
Q 1428 -91 1123 -41 
Q 819 9 494 109 
L 494 744 
Q 775 591 1075 516 
Q 1375 441 1709 441 
Q 2250 441 2565 725 
Q 2881 1009 2881 1497 
Q 2881 1984 2565 2268 
Q 2250 2553 1709 2553 
Q 1456 2553 1204 2497 
Q 953 2441 691 2322 
L 691 4666 
z
" transform="scale(0.015625)"/>
       </defs>
       <use xlink:href="#DejaVuSans-35"/>
       <use xlink:href="#DejaVuSans-30" x="63.623047"/>
      </g>
     </g>
    </g>
   </g>
   <g id="matplotlib.axis_2">
    <g id="ytick_1">
     <g id="line2d_7">
      <defs>
       <path id="m4906753533" d="M 0 0 
L -3.5 0 
" style="stroke: #000000; stroke-width: 0.8"/>
      </defs>
      <g>
       <use xlink:href="#m4906753533" x="57.6" y="295.487995" style="stroke: #000000; stroke-width: 0.8"/>
      </g>
     </g>
     <g id="text_7">
      <!-- 0 -->
      <g transform="translate(44.2375 299.287214)scale(0.1 -0.1)">
       <use xlink:href="#DejaVuSans-30"/>
      </g>
     </g>
    </g>
    <g id="ytick_2">
     <g id="line2d_8">
      <g>
       <use xlink:href="#m4906753533" x="57.6" y="265.019482" style="stroke: #000000; stroke-width: 0.8"/>
      </g>
     </g>
     <g id="text_8">
      <!-- 5 -->
      <g transform="translate(44.2375 268.8187)scale(0.1 -0.1)">
       <use xlink:href="#DejaVuSans-35"/>
      </g>
     </g>
    </g>
    <g id="ytick_3">
     <g id="line2d_9">
      <g>
       <use xlink:href="#m4906753533" x="57.6" y="234.550969" style="stroke: #000000; stroke-width: 0.8"/>
      </g>
     </g>
     <g id="text_9">
      <!-- 10 -->
      <g transform="translate(37.875 238.350187)scale(0.1 -0.1)">
       <use xlink:href="#DejaVuSans-31"/>
       <use xlink:href="#DejaVuSans-30" x="63.623047"/>
      </g>
     </g>
    </g>
    <g id="ytick_4">
     <g id="line2d_10">
      <g>
       <use xlink:href="#m4906753533" x="57.6" y="204.082455" style="stroke: #000000; stroke-width: 0.8"/>
      </g>
     </g>
     <g id="text_10">
      <!-- 15 -->
      <g transform="translate(37.875 207.881674)scale(0.1 -0.1)">
       <use xlink:href="#DejaVuSans-31"/>
       <use xlink:href="#DejaVuSans-35" x="63.623047"/>
      </g>
     </g>
    </g>
    <g id="ytick_5">
     <g id="line2d_11">
      <g>
       <use xlink:href="#m4906753533" x="57.6" y="173.613942" style="stroke: #000000; stroke-width: 0.8"/>
      </g>
     </g>
     <g id="text_11">
      <!-- 20 -->
      <g transform="translate(37.875 177.413161)scale(0.1 -0.1)">
       <use xlink:href="#DejaVuSans-32"/>
       <use xlink:href="#DejaVuSans-30" x="63.623047"/>
      </g>
     </g>
    </g>
    <g id="ytick_6">
     <g id="line2d_12">
      <g>
       <use xlink:href="#m4906753533" x="57.6" y="143.145429" style="stroke: #000000; stroke-width: 0.8"/>
      </g>
     </g>
     <g id="text_12">
      <!-- 25 -->
      <g transform="translate(37.875 146.944648)scale(0.1 -0.1)">
       <use xlink:href="#DejaVuSans-32"/>
       <use xlink:href="#DejaVuSans-35" x="63.623047"/>
      </g>
     </g>
    </g>
    <g id="ytick_7">
     <g id="line2d_13">
      <g>
       <use xlink:href="#m4906753533" x="57.6" y="112.676916" style="stroke: #000000; stroke-width: 0.8"/>
      </g>
     </g>
     <g id="text_13">
      <!-- 30 -->
      <g transform="translate(37.875 116.476134)scale(0.1 -0.1)">
       <use xlink:href="#DejaVuSans-33"/>
       <use xlink:href="#DejaVuSans-30" x="63.623047"/>
      </g>
     </g>
    </g>
    <g id="ytick_8">
     <g id="line2d_14">
      <g>
       <use xlink:href="#m4906753533" x="57.6" y="82.208402" style="stroke: #000000; stroke-width: 0.8"/>
      </g>
     </g>
     <g id="text_14">
      <!-- 35 -->
      <g transform="translate(37.875 86.007621)scale(0.1 -0.1)">
       <use xlink:href="#DejaVuSans-33"/>
       <use xlink:href="#DejaVuSans-35" x="63.623047"/>
      </g>
     </g>
    </g>
    <g id="ytick_9">
     <g id="line2d_15">
      <g>
       <use xlink:href="#m4906753533" x="57.6" y="51.739889" style="stroke: #000000; stroke-width: 0.8"/>
      </g>
     </g>
     <g id="text_15">
      <!-- 40 -->
      <g transform="translate(37.875 55.539108)scale(0.1 -0.1)">
       <use xlink:href="#DejaVuSans-34"/>
       <use xlink:href="#DejaVuSans-30" x="63.623047"/>
      </g>
     </g>
    </g>
   </g>
   <g id="line2d_16">
    <path d="M 57.6 53.568 
L 57.680483 53.643024 
L 58.485316 54.406141 
L 66.533639 63.722672 
L 71.963257 72.771907 
L 75.72958 81.17197 
L 77.042934 84.503955 
L 78.356287 87.9826 
L 79.676601 91.599318 
L 80.900102 95.046771 
L 82.231323 98.89912 
L 83.545946 102.805588 
L 85.043555 107.378726 
L 86.95316 113.398915 
L 89.963592 123.317133 
L 94.235237 138.277387 
L 97.954116 152.127256 
L 101.672995 166.709692 
L 106.249517 185.580504 
L 111.312418 207.480523 
L 118.17948 238.413214 
L 125.50603 271.894845 
L 129.203243 288.123413 
L 130.445829 292.940065 
L 131.19906 294.97987 
L 131.500259 295.330167 
L 131.747764 295.43874 
L 131.995268 295.472264 
L 132.214671 295.482874 
L 132.434074 295.48631 
L 132.928355 295.487725 
L 133.374508 295.487936 
L 133.913632 295.487989 
L 134.875218 295.488 
L 137.760952 295.488 
L 166.618293 295.488 
L 196.920173 295.488 
L 209.345848 295.488 
L 221.771522 295.488 
L 229.589522 295.488 
L 235.149758 295.488 
L 240.709995 295.488 
L 246.695408 295.488 
L 252.207492 295.488 
L 257.210476 295.488 
L 262.21346 295.488 
L 268.713372 295.488 
L 275.496532 295.488 
L 283.409216 295.488 
L 293.722938 295.488 
L 310.256987 295.488 
L 358.685506 295.488 
L 414.72 295.488 
" clip-path="url(#pcc21491481)" style="fill: none; stroke: #1f77b4; stroke-width: 1.5; stroke-linecap: square"/>
   </g>
   <g id="line2d_17">
    <path d="M 57.6 152.285983 
L 57.680483 152.290028 
L 58.485316 152.331277 
L 66.533639 152.851879 
L 71.963257 153.39377 
L 75.72958 153.933357 
L 77.042934 154.155378 
L 78.356287 154.390541 
L 79.676601 154.638211 
L 80.900102 154.877247 
L 82.231323 155.147929 
L 83.545946 155.426468 
L 85.043555 155.758017 
L 86.95316 156.204003 
L 89.963592 156.964094 
L 94.235237 158.176198 
L 97.954116 159.377258 
L 101.672995 160.735483 
L 106.249517 162.660169 
L 111.312418 165.185132 
L 118.17948 169.492289 
L 125.50603 175.830418 
L 129.203243 180.234328 
L 130.445829 182.012203 
L 131.19906 183.173366 
L 131.500259 183.64985 
L 131.747764 184.043475 
L 131.995268 184.43781 
L 132.214671 184.787613 
L 132.434074 185.137543 
L 132.928355 185.92619 
L 133.374508 186.638348 
L 133.913632 187.499249 
L 134.875218 189.035564 
L 137.760952 193.65023 
L 166.618293 238.610813 
L 196.920173 276.491207 
L 209.345848 286.831088 
L 221.771522 293.119933 
L 229.589522 294.805803 
L 235.149758 295.249722 
L 240.709995 295.41211 
L 246.695408 295.462788 
L 252.207492 295.479696 
L 257.210476 295.485051 
L 262.21346 295.486952 
L 268.713372 295.487609 
L 275.496532 295.487843 
L 283.409216 295.487936 
L 293.722938 295.48798 
L 310.256987 295.487996 
L 358.685506 295.487996 
L 414.72 295.487996 
" clip-path="url(#pcc21491481)" style="fill: none; stroke: #ff7f0e; stroke-width: 1.5; stroke-linecap: square"/>
   </g>
   <g id="line2d_18">
    <path d="M 57.6 292.075521 
L 57.680483 292.09131 
L 58.485316 292.249621 
L 66.533639 293.862919 
L 71.963257 294.905137 
L 75.72958 295.387764 
L 77.042934 295.452054 
L 78.356287 295.477519 
L 79.676601 295.484572 
L 80.900102 295.486866 
L 82.231323 295.487569 
L 83.545946 295.487829 
L 85.043555 295.487932 
L 86.95316 295.487979 
L 89.963592 295.487997 
L 94.235237 295.487997 
L 97.954116 295.487997 
L 101.672995 295.487997 
L 106.249517 295.487997 
L 111.312418 295.487997 
L 118.17948 295.487997 
L 125.50603 295.487997 
L 129.203243 295.487997 
L 130.445829 295.487997 
L 131.19906 295.487997 
L 131.500259 295.487997 
L 131.747764 295.487997 
L 131.995268 295.487997 
L 132.214671 295.487997 
L 132.434074 295.487997 
L 132.928355 295.487997 
L 133.374508 295.487997 
L 133.913632 295.487997 
L 134.875218 295.487997 
L 137.760952 295.487997 
L 166.618293 295.487997 
L 196.920173 295.487997 
L 209.345848 295.487997 
L 221.771522 295.487997 
L 229.589522 295.487997 
L 235.149758 295.487997 
L 240.709995 295.487997 
L 246.695408 295.487997 
L 252.207492 295.487997 
L 257.210476 295.487997 
L 262.21346 295.487997 
L 268.713372 295.487997 
L 275.496532 295.487997 
L 283.409216 295.487997 
L 293.722938 295.487997 
L 310.256987 295.487997 
L 358.685506 295.487997 
L 414.72 295.487997 
" clip-path="url(#pcc21491481)" style="fill: none; stroke: #2ca02c; stroke-width: 1.5; stroke-linecap: square"/>
   </g>
   <g id="line2d_19">
    <path d="M 57.6 295.487995 
L 57.680483 295.47189 
L 58.485316 295.310414 
L 66.533639 293.66485 
L 71.963257 292.601787 
L 75.72958 292.109507 
L 77.042934 292.043932 
L 78.356287 292.017958 
L 79.676601 292.010763 
L 80.900102 292.008424 
L 82.231323 292.007706 
L 83.545946 292.007442 
L 85.043555 292.007336 
L 86.95316 292.007288 
L 89.963592 292.00727 
L 94.235237 292.00727 
L 97.954116 292.00727 
L 101.672995 292.00727 
L 106.249517 292.00727 
L 111.312418 292.00727 
L 118.17948 292.00727 
L 125.50603 292.00727 
L 129.203243 292.00727 
L 130.445829 292.00727 
L 131.19906 292.00727 
L 131.500259 292.00727 
L 131.747764 292.00727 
L 131.995268 292.00727 
L 132.214671 292.00727 
L 132.434074 292.00727 
L 132.928355 292.00727 
L 133.374508 292.00727 
L 133.913632 292.00727 
L 134.875218 292.00727 
L 137.760952 292.00727 
L 166.618293 292.00727 
L 196.920173 292.00727 
L 209.345848 292.00727 
L 221.771522 292.00727 
L 229.589522 292.00727 
L 235.149758 292.00727 
L 240.709995 292.00727 
L 246.695408 292.00727 
L 252.207492 292.00727 
L 257.210476 292.00727 
L 262.21346 292.00727 
L 268.713372 292.00727 
L 275.496532 292.00727 
L 283.409216 292.00727 
L 293.722938 292.00727 
L 310.256987 292.00727 
L 358.685506 292.00727 
L 414.72 292.00727 
" clip-path="url(#pcc21491481)" style="fill: none; stroke: #d62728; stroke-width: 1.5; stroke-linecap: square"/>
   </g>
   <g id="line2d_20">
    <path d="M 57.6 294.269254 
L 57.680483 294.2726 
L 58.485316 294.30645 
L 66.533639 294.68898 
L 71.963257 294.993836 
L 75.72958 295.203365 
L 77.042934 295.264437 
L 78.356287 295.315617 
L 79.676601 295.357177 
L 80.900102 295.387814 
L 82.231323 295.413917 
L 83.545946 295.433636 
L 85.043555 295.450304 
L 86.95316 295.464851 
L 89.963592 295.477761 
L 94.235237 295.484762 
L 97.954116 295.486978 
L 101.672995 295.487662 
L 106.249517 295.487871 
L 111.312418 295.48796 
L 118.17948 295.487994 
L 125.50603 295.487995 
L 129.203243 295.487995 
L 130.445829 295.487995 
L 131.19906 295.487995 
L 131.500259 295.487995 
L 131.747764 295.487995 
L 131.995268 295.487995 
L 132.214671 295.487995 
L 132.434074 295.487995 
L 132.928355 295.487995 
L 133.374508 295.487995 
L 133.913632 295.487995 
L 134.875218 295.487995 
L 137.760952 295.487995 
L 166.618293 295.487995 
L 196.920173 295.487995 
L 209.345848 295.487995 
L 221.771522 295.487995 
L 229.589522 295.487995 
L 235.149758 295.487995 
L 240.709995 295.487995 
L 246.695408 295.487995 
L 252.207492 295.487995 
L 257.210476 295.487995 
L 262.21346 295.487995 
L 268.713372 295.487995 
L 275.496532 295.487995 
L 283.409216 295.487995 
L 293.722938 295.487995 
L 310.256987 295.487995 
L 358.685506 295.487995 
L 414.72 295.487995 
" clip-path="url(#pcc21491481)" style="fill: none; stroke: #9467bd; stroke-width: 1.5; stroke-linecap: square"/>
   </g>
   <g id="line2d_21">
    <path d="M 57.6 276.902202 
L 57.680483 276.900418 
L 58.485316 276.882372 
L 66.533639 276.678412 
L 71.963257 276.515851 
L 75.72958 276.404138 
L 77.042934 276.371591 
L 78.356287 276.344327 
L 79.676601 276.322204 
L 80.900102 276.305909 
L 82.231323 276.292045 
L 83.545946 276.28159 
L 85.043555 276.272779 
L 86.95316 276.265128 
L 89.963592 276.25843 
L 94.235237 276.254992 
L 97.954116 276.254095 
L 101.672995 276.254041 
L 106.249517 276.254345 
L 111.312418 276.254805 
L 118.17948 276.25556 
L 125.50603 276.256501 
L 129.203243 276.257024 
L 130.445829 276.257207 
L 131.19906 276.25732 
L 131.500259 276.257365 
L 131.747764 276.257403 
L 131.995268 276.25744 
L 132.214671 276.257473 
L 132.434074 276.257507 
L 132.928355 276.257582 
L 133.374508 276.25765 
L 133.913632 276.257732 
L 134.875218 276.257879 
L 137.760952 276.258327 
L 166.618293 276.263208 
L 196.920173 276.269052 
L 209.345848 276.27161 
L 221.771522 276.274226 
L 229.589522 276.275888 
L 235.149758 276.277073 
L 240.709995 276.278259 
L 246.695408 276.279536 
L 252.207492 276.280712 
L 257.210476 276.281779 
L 262.21346 276.282847 
L 268.713372 276.284233 
L 275.496532 276.28568 
L 283.409216 276.287368 
L 293.722938 276.289569 
L 310.256987 276.293095 
L 358.685506 276.303424 
L 414.72 276.315372 
" clip-path="url(#pcc21491481)" style="fill: none; stroke: #8c564b; stroke-width: 1.5; stroke-linecap: square"/>
   </g>
   <g id="line2d_22">
    <path d="M 57.6 291.709899 
L 57.680483 291.678109 
L 58.485316 291.35472 
L 66.533639 287.402545 
L 71.963257 283.555065 
L 75.72958 279.974819 
L 77.042934 278.552754 
L 78.356287 277.067288 
L 79.676601 275.522099 
L 80.900102 274.048517 
L 82.231323 272.401008 
L 83.545946 270.729382 
L 85.043555 268.771165 
L 86.95316 266.191035 
L 89.963592 261.934209 
L 94.235237 255.497631 
L 97.954116 249.519851 
L 101.672995 243.203412 
L 106.249517 234.989358 
L 111.312418 225.386839 
L 118.17948 211.645972 
L 125.50603 196.370567 
L 129.203243 188.646933 
L 130.445829 186.241562 
L 131.19906 185.124931 
L 131.500259 184.866673 
L 131.747764 184.727601 
L 131.995268 184.619189 
L 132.214671 184.530878 
L 132.434074 184.445483 
L 132.928355 184.255627 
L 133.374508 184.084622 
L 133.913632 183.877984 
L 134.875218 183.509264 
L 137.760952 182.401744 
L 166.618293 171.611204 
L 196.920173 162.51991 
L 209.345848 160.038338 
L 221.771522 158.529015 
L 229.589522 158.124406 
L 235.149758 158.017866 
L 240.709995 157.978893 
L 246.695408 157.96673 
L 252.207492 157.962672 
L 257.210476 157.961387 
L 262.21346 157.960931 
L 268.713372 157.960773 
L 275.496532 157.960717 
L 283.409216 157.960694 
L 293.722938 157.960684 
L 310.256987 157.96068 
L 358.685506 157.96068 
L 414.72 157.96068 
" clip-path="url(#pcc21491481)" style="fill: none; stroke: #e377c2; stroke-width: 1.5; stroke-linecap: square"/>
   </g>
   <g id="line2d_23">
    <path d="M 57.6 284.824015 
L 57.680483 284.814732 
L 58.485316 284.720291 
L 66.533639 283.564553 
L 71.963257 282.436104 
L 75.72958 281.382684 
L 77.042934 280.963538 
L 78.356287 280.525398 
L 79.676601 280.069353 
L 80.900102 279.634172 
L 82.231323 279.147301 
L 83.545946 278.652934 
L 85.043555 278.073312 
L 86.95316 277.308741 
L 89.963592 276.045011 
L 94.235237 274.128221 
L 97.954116 272.340914 
L 101.672995 270.443902 
L 106.249517 267.961959 
L 111.312418 265.034413 
L 118.17948 260.779394 
L 125.50603 255.90223 
L 129.203243 253.322511 
L 130.445829 252.48058 
L 131.19906 252.057894 
L 131.500259 251.94042 
L 131.747764 251.864166 
L 131.995268 251.796429 
L 132.214671 251.738541 
L 132.434074 251.681457 
L 132.928355 251.553533 
L 133.374508 251.43814 
L 133.913632 251.298668 
L 134.875218 251.049783 
L 137.760952 250.302207 
L 166.618293 243.018593 
L 196.920173 236.881969 
L 209.345848 235.206908 
L 221.771522 234.188115 
L 229.589522 233.915004 
L 235.149758 233.843089 
L 240.709995 233.816783 
L 246.695408 233.808573 
L 252.207492 233.805834 
L 257.210476 233.804966 
L 262.21346 233.804658 
L 268.713372 233.804552 
L 275.496532 233.804514 
L 283.409216 233.804499 
L 293.722938 233.804492 
L 310.256987 233.804489 
L 358.685506 233.804489 
L 414.72 233.804489 
" clip-path="url(#pcc21491481)" style="fill: none; stroke: #7f7f7f; stroke-width: 1.5; stroke-linecap: square"/>
   </g>
   <g id="patch_3">
    <path d="M 57.6 307.584 
L 57.6 41.472 
" style="fill: none; stroke: #000000; stroke-width: 0.8; stroke-linejoin: miter; stroke-linecap: square"/>
   </g>
   <g id="patch_4">
    <path d="M 414.72 307.584 
L 414.72 41.472 
" style="fill: none; stroke: #000000; stroke-width: 0.8; stroke-linejoin: miter; stroke-linecap: square"/>
   </g>
   <g id="patch_5">
    <path d="M 57.6 307.584 
L 414.72 307.584 
" style="fill: none; stroke: #000000; stroke-width: 0.8; stroke-linejoin: miter; stroke-linecap: square"/>
   </g>
   <g id="patch_6">
    <path d="M 57.6 41.472 
L 414.72 41.472 
" style="fill: none; stroke: #000000; stroke-width: 0.8; stroke-linejoin: miter; stroke-linecap: square"/>
   </g>
  </g>
 </g>
 <defs>
  <clipPath id="pcc21491481">
   <rect x="57.6" y="41.472" width="357.12" height="266.112"/>
  </clipPath>
 </defs>
</svg>
